<?xml version="1.0" encoding="UTF-8"?>
<!-- Generator: visioncortex VTracer -->
<svg id="svg" version="1.1" xmlns="http://www.w3.org/2000/svg" style="display: block;" viewBox="0 0 1254 1254"><path d="M0 0 C268.62 0 537.24 0 814 0 C814 0.66 814 1.32 814 2 C817.3 2 820.6 2 824 2 C824 2.66 824 3.32 824 4 C827.3 4 830.6 4 834 4 C834 4.66 834 5.32 834 6 C836.64 6 839.28 6 842 6 C842 6.66 842 7.32 842 8 C843.98 8 845.96 8 848 8 C848 8.66 848 9.32 848 10 C850.64 10 853.28 10 856 10 C856 10.66 856 11.32 856 12 C857.98 12 859.96 12 862 12 C862 12.66 862 13.32 862 14 C863.98 14 865.96 14 868 14 C868 14.66 868 15.32 868 16 C869.32 16 870.64 16 872 16 C872 16.66 872 17.32 872 18 C873.32 18 874.64 18 876 18 C876 18.66 876 19.32 876 20 C877.98 20 879.96 20 882 20 C882 20.66 882 21.32 882 22 C883.32 22 884.64 22 886 22 C886 22.66 886 23.32 886 24 C887.32 24 888.64 24 890 24 C890 24.66 890 25.32 890 26 C891.32 26 892.64 26 894 26 C894 26.66 894 27.32 894 28 C895.32 28 896.64 28 898 28 C898 28.66 898 29.32 898 30 C899.32 30 900.64 30 902 30 C902 30.66 902 31.32 902 32 C902.66 32 903.32 32 904 32 C904 32.66 904 33.32 904 34 C905.32 34 906.64 34 908 34 C908 34.66 908 35.32 908 36 C909.32 36 910.64 36 912 36 C912 36.66 912 37.32 912 38 C912.66 38 913.32 38 914 38 C914 38.66 914 39.32 914 40 C915.32 40 916.64 40 918 40 C918 40.66 918 41.32 918 42 C918.66 42 919.32 42 920 42 C920 42.66 920 43.32 920 44 C921.32 44 922.64 44 924 44 C924 44.66 924 45.32 924 46 C924.66 46 925.32 46 926 46 C926 46.66 926 47.32 926 48 C927.32 48 928.64 48 930 48 C930 48.66 930 49.32 930 50 C930.66 50 931.32 50 932 50 C932 50.66 932 51.32 932 52 C932.66 52 933.32 52 934 52 C934 52.66 934 53.32 934 54 C935.32 54 936.64 54 938 54 C938 54.66 938 55.32 938 56 C938.66 56 939.32 56 940 56 C940 56.66 940 57.32 940 58 C940.66 58 941.32 58 942 58 C942 58.66 942 59.32 942 60 C942.66 60 943.32 60 944 60 C944 60.66 944 61.32 944 62 C944.66 62 945.32 62 946 62 C946 62.66 946 63.32 946 64 C946.66 64 947.32 64 948 64 C948 64.66 948 65.32 948 66 C948.66 66 949.32 66 950 66 C950 66.66 950 67.32 950 68 C950.66 68 951.32 68 952 68 C952 68.66 952 69.32 952 70 C952.66 70 953.32 70 954 70 C954 70.66 954 71.32 954 72 C954.66 72 955.32 72 956 72 C956 72.66 956 73.32 956 74 C956.66 74 957.32 74 958 74 C958 74.66 958 75.32 958 76 C958.66 76 959.32 76 960 76 C960 76.66 960 77.32 960 78 C960.66 78 961.32 78 962 78 C962 78.66 962 79.32 962 80 C962.66 80 963.32 80 964 80 C964 80.66 964 81.32 964 82 C964.66 82 965.32 82 966 82 C966 82.66 966 83.32 966 84 C966.66 84 967.32 84 968 84 C968 85.32 968 86.64 968 88 C968.66 88 969.32 88 970 88 C970 88.66 970 89.32 970 90 C970.66 90 971.32 90 972 90 C972 90.66 972 91.32 972 92 C972.66 92 973.32 92 974 92 C974 92.66 974 93.32 974 94 C974.66 94 975.32 94 976 94 C976 95.32 976 96.64 976 98 C976.66 98 977.32 98 978 98 C978 98.66 978 99.32 978 100 C978.66 100 979.32 100 980 100 C980 100.66 980 101.32 980 102 C980.66 102 981.32 102 982 102 C982 103.32 982 104.64 982 106 C982.66 106 983.32 106 984 106 C984 106.66 984 107.32 984 108 C984.66 108 985.32 108 986 108 C986 109.32 986 110.64 986 112 C986.66 112 987.32 112 988 112 C988 112.66 988 113.32 988 114 C988.66 114 989.32 114 990 114 C990 115.32 990 116.64 990 118 C990.66 118 991.32 118 992 118 C992 119.32 992 120.64 992 122 C992.66 122 993.32 122 994 122 C994 122.66 994 123.32 994 124 C994.66 124 995.32 124 996 124 C996 125.32 996 126.64 996 128 C996.66 128 997.32 128 998 128 C998 129.32 998 130.64 998 132 C998.66 132 999.32 132 1000 132 C1000 133.32 1000 134.64 1000 136 C1000.66 136 1001.32 136 1002 136 C1002 137.32 1002 138.64 1002 140 C1002.66 140 1003.32 140 1004 140 C1004 141.32 1004 142.64 1004 144 C1004.66 144 1005.32 144 1006 144 C1006 145.98 1006 147.96 1006 150 C1006.66 150 1007.32 150 1008 150 C1008 151.32 1008 152.64 1008 154 C1008.66 154 1009.32 154 1010 154 C1010 155.98 1010 157.96 1010 160 C1010.66 160 1011.32 160 1012 160 C1012 161.32 1012 162.64 1012 164 C1012.66 164 1013.32 164 1014 164 C1014 165.98 1014 167.96 1014 170 C1014.66 170 1015.32 170 1016 170 C1016 172.64 1016 175.28 1016 178 C1016.66 178 1017.32 178 1018 178 C1018 179.98 1018 181.96 1018 184 C1018.66 184 1019.32 184 1020 184 C1020 186.64 1020 189.28 1020 192 C1020.66 192 1021.32 192 1022 192 C1022 195.3 1022 198.6 1022 202 C1022.66 202 1023.32 202 1024 202 C1024 207.28 1024 212.56 1024 218 C1024.66 218 1025.32 218 1026 218 C1026 484.64 1026 751.28 1026 1026 C1025.34 1026 1024.68 1026 1024 1026 C1024 1030.62 1024 1035.24 1024 1040 C1023.34 1040 1022.68 1040 1022 1040 C1022 1043.3 1022 1046.6 1022 1050 C1021.34 1050 1020.68 1050 1020 1050 C1020 1052.64 1020 1055.28 1020 1058 C1019.34 1058 1018.68 1058 1018 1058 C1018 1060.64 1018 1063.28 1018 1066 C1017.34 1066 1016.68 1066 1016 1066 C1016 1067.98 1016 1069.96 1016 1072 C1015.34 1072 1014.68 1072 1014 1072 C1014 1073.98 1014 1075.96 1014 1078 C1013.34 1078 1012.68 1078 1012 1078 C1012 1079.98 1012 1081.96 1012 1084 C1011.34 1084 1010.68 1084 1010 1084 C1010 1085.98 1010 1087.96 1010 1090 C1009.34 1090 1008.68 1090 1008 1090 C1008 1091.32 1008 1092.64 1008 1094 C1007.34 1094 1006.68 1094 1006 1094 C1006 1095.98 1006 1097.96 1006 1100 C1005.34 1100 1004.68 1100 1004 1100 C1004 1101.32 1004 1102.64 1004 1104 C1003.34 1104 1002.68 1104 1002 1104 C1002 1105.32 1002 1106.64 1002 1108 C1001.34 1108 1000.68 1108 1000 1108 C1000 1109.32 1000 1110.64 1000 1112 C999.34 1112 998.68 1112 998 1112 C998 1113.32 998 1114.64 998 1116 C997.34 1116 996.68 1116 996 1116 C996 1116.66 996 1117.32 996 1118 C995.34 1118 994.68 1118 994 1118 C994 1119.32 994 1120.64 994 1122 C993.34 1122 992.68 1122 992 1122 C992 1123.32 992 1124.64 992 1126 C991.34 1126 990.68 1126 990 1126 C990 1127.32 990 1128.64 990 1130 C989.34 1130 988.68 1130 988 1130 C988 1130.66 988 1131.32 988 1132 C987.34 1132 986.68 1132 986 1132 C986 1133.32 986 1134.64 986 1136 C985.34 1136 984.68 1136 984 1136 C984 1136.66 984 1137.32 984 1138 C983.34 1138 982.68 1138 982 1138 C982 1139.32 982 1140.64 982 1142 C981.34 1142 980.68 1142 980 1142 C980 1142.66 980 1143.32 980 1144 C979.34 1144 978.68 1144 978 1144 C978 1144.66 978 1145.32 978 1146 C977.34 1146 976.68 1146 976 1146 C976 1147.32 976 1148.64 976 1150 C975.34 1150 974.68 1150 974 1150 C974 1150.66 974 1151.32 974 1152 C973.34 1152 972.68 1152 972 1152 C972 1152.66 972 1153.32 972 1154 C971.34 1154 970.68 1154 970 1154 C970 1154.66 970 1155.32 970 1156 C969.34 1156 968.68 1156 968 1156 C968 1157.32 968 1158.64 968 1160 C967.34 1160 966.68 1160 966 1160 C966 1160.66 966 1161.32 966 1162 C965.34 1162 964.68 1162 964 1162 C964 1162.66 964 1163.32 964 1164 C963.34 1164 962.68 1164 962 1164 C962 1164.66 962 1165.32 962 1166 C961.34 1166 960.68 1166 960 1166 C960 1166.66 960 1167.32 960 1168 C959.34 1168 958.68 1168 958 1168 C958 1168.66 958 1169.32 958 1170 C957.34 1170 956.68 1170 956 1170 C956 1170.66 956 1171.32 956 1172 C955.34 1172 954.68 1172 954 1172 C954 1172.66 954 1173.32 954 1174 C953.34 1174 952.68 1174 952 1174 C952 1174.66 952 1175.32 952 1176 C951.34 1176 950.68 1176 950 1176 C950 1176.66 950 1177.32 950 1178 C949.34 1178 948.68 1178 948 1178 C948 1178.66 948 1179.32 948 1180 C947.34 1180 946.68 1180 946 1180 C946 1180.66 946 1181.32 946 1182 C945.34 1182 944.68 1182 944 1182 C944 1182.66 944 1183.32 944 1184 C942.68 1184 941.36 1184 940 1184 C940 1184.66 940 1185.32 940 1186 C939.34 1186 938.68 1186 938 1186 C938 1186.66 938 1187.32 938 1188 C937.34 1188 936.68 1188 936 1188 C936 1188.66 936 1189.32 936 1190 C935.34 1190 934.68 1190 934 1190 C934 1190.66 934 1191.32 934 1192 C933.34 1192 932.68 1192 932 1192 C932 1192.66 932 1193.32 932 1194 C930.68 1194 929.36 1194 928 1194 C928 1194.66 928 1195.32 928 1196 C927.34 1196 926.68 1196 926 1196 C926 1196.66 926 1197.32 926 1198 C925.34 1198 924.68 1198 924 1198 C924 1198.66 924 1199.32 924 1200 C922.68 1200 921.36 1200 920 1200 C920 1200.66 920 1201.32 920 1202 C919.34 1202 918.68 1202 918 1202 C918 1202.66 918 1203.32 918 1204 C916.68 1204 915.36 1204 914 1204 C914 1204.66 914 1205.32 914 1206 C913.34 1206 912.68 1206 912 1206 C912 1206.66 912 1207.32 912 1208 C910.68 1208 909.36 1208 908 1208 C908 1208.66 908 1209.32 908 1210 C906.68 1210 905.36 1210 904 1210 C904 1210.66 904 1211.32 904 1212 C902.68 1212 901.36 1212 900 1212 C900 1212.66 900 1213.32 900 1214 C899.34 1214 898.68 1214 898 1214 C898 1214.66 898 1215.32 898 1216 C896.68 1216 895.36 1216 894 1216 C894 1216.66 894 1217.32 894 1218 C892.68 1218 891.36 1218 890 1218 C890 1218.66 890 1219.32 890 1220 C888.68 1220 887.36 1220 886 1220 C886 1220.66 886 1221.32 886 1222 C884.02 1222 882.04 1222 880 1222 C880 1222.66 880 1223.32 880 1224 C878.68 1224 877.36 1224 876 1224 C876 1224.66 876 1225.32 876 1226 C874.68 1226 873.36 1226 872 1226 C872 1226.66 872 1227.32 872 1228 C870.02 1228 868.04 1228 866 1228 C866 1228.66 866 1229.32 866 1230 C864.02 1230 862.04 1230 860 1230 C860 1230.66 860 1231.32 860 1232 C858.02 1232 856.04 1232 854 1232 C854 1232.66 854 1233.32 854 1234 C852.02 1234 850.04 1234 848 1234 C848 1234.66 848 1235.32 848 1236 C845.36 1236 842.72 1236 840 1236 C840 1236.66 840 1237.32 840 1238 C836.7 1238 833.4 1238 830 1238 C830 1238.66 830 1239.32 830 1240 C826.7 1240 823.4 1240 820 1240 C820 1240.66 820 1241.32 820 1242 C816.04 1242 812.08 1242 808 1242 C808 1242.66 808 1243.32 808 1244 C540.7 1244 273.4 1244 -2 1244 C-2 1243.34 -2 1242.68 -2 1242 C-5.96 1242 -9.92 1242 -14 1242 C-14 1241.34 -14 1240.68 -14 1240 C-16.64 1240 -19.28 1240 -22 1240 C-22 1239.34 -22 1238.68 -22 1238 C-25.3 1238 -28.6 1238 -32 1238 C-32 1237.34 -32 1236.68 -32 1236 C-34.64 1236 -37.28 1236 -40 1236 C-40 1235.34 -40 1234.68 -40 1234 C-41.98 1234 -43.96 1234 -46 1234 C-46 1233.34 -46 1232.68 -46 1232 C-47.98 1232 -49.96 1232 -52 1232 C-52 1231.34 -52 1230.68 -52 1230 C-53.98 1230 -55.96 1230 -58 1230 C-58 1229.34 -58 1228.68 -58 1228 C-59.98 1228 -61.96 1228 -64 1228 C-64 1227.34 -64 1226.68 -64 1226 C-65.32 1226 -66.64 1226 -68 1226 C-68 1225.34 -68 1224.68 -68 1224 C-69.32 1224 -70.64 1224 -72 1224 C-72 1223.34 -72 1222.68 -72 1222 C-73.98 1222 -75.96 1222 -78 1222 C-78 1221.34 -78 1220.68 -78 1220 C-79.32 1220 -80.64 1220 -82 1220 C-82 1219.34 -82 1218.68 -82 1218 C-83.32 1218 -84.64 1218 -86 1218 C-86 1217.34 -86 1216.68 -86 1216 C-87.32 1216 -88.64 1216 -90 1216 C-90 1215.34 -90 1214.68 -90 1214 C-90.66 1214 -91.32 1214 -92 1214 C-92 1213.34 -92 1212.68 -92 1212 C-93.32 1212 -94.64 1212 -96 1212 C-96 1211.34 -96 1210.68 -96 1210 C-97.32 1210 -98.64 1210 -100 1210 C-100 1209.34 -100 1208.68 -100 1208 C-101.32 1208 -102.64 1208 -104 1208 C-104 1207.34 -104 1206.68 -104 1206 C-104.66 1206 -105.32 1206 -106 1206 C-106 1205.34 -106 1204.68 -106 1204 C-107.32 1204 -108.64 1204 -110 1204 C-110 1203.34 -110 1202.68 -110 1202 C-110.66 1202 -111.32 1202 -112 1202 C-112 1201.34 -112 1200.68 -112 1200 C-113.32 1200 -114.64 1200 -116 1200 C-116 1199.34 -116 1198.68 -116 1198 C-116.66 1198 -117.32 1198 -118 1198 C-118 1197.34 -118 1196.68 -118 1196 C-118.66 1196 -119.32 1196 -120 1196 C-120 1195.34 -120 1194.68 -120 1194 C-121.32 1194 -122.64 1194 -124 1194 C-124 1193.34 -124 1192.68 -124 1192 C-124.66 1192 -125.32 1192 -126 1192 C-126 1191.34 -126 1190.68 -126 1190 C-126.66 1190 -127.32 1190 -128 1190 C-128 1189.34 -128 1188.68 -128 1188 C-128.66 1188 -129.32 1188 -130 1188 C-130 1187.34 -130 1186.68 -130 1186 C-131.32 1186 -132.64 1186 -134 1186 C-134 1185.34 -134 1184.68 -134 1184 C-134.66 1184 -135.32 1184 -136 1184 C-136 1183.34 -136 1182.68 -136 1182 C-136.66 1182 -137.32 1182 -138 1182 C-138 1181.34 -138 1180.68 -138 1180 C-138.66 1180 -139.32 1180 -140 1180 C-140 1179.34 -140 1178.68 -140 1178 C-140.66 1178 -141.32 1178 -142 1178 C-142 1177.34 -142 1176.68 -142 1176 C-142.66 1176 -143.32 1176 -144 1176 C-144 1175.34 -144 1174.68 -144 1174 C-144.66 1174 -145.32 1174 -146 1174 C-146 1173.34 -146 1172.68 -146 1172 C-146.66 1172 -147.32 1172 -148 1172 C-148 1171.34 -148 1170.68 -148 1170 C-148.66 1170 -149.32 1170 -150 1170 C-150 1169.34 -150 1168.68 -150 1168 C-150.66 1168 -151.32 1168 -152 1168 C-152 1167.34 -152 1166.68 -152 1166 C-152.66 1166 -153.32 1166 -154 1166 C-154 1165.34 -154 1164.68 -154 1164 C-154.66 1164 -155.32 1164 -156 1164 C-156 1163.34 -156 1162.68 -156 1162 C-156.66 1162 -157.32 1162 -158 1162 C-158 1161.34 -158 1160.68 -158 1160 C-158.66 1160 -159.32 1160 -160 1160 C-160 1158.68 -160 1157.36 -160 1156 C-160.66 1156 -161.32 1156 -162 1156 C-162 1155.34 -162 1154.68 -162 1154 C-162.66 1154 -163.32 1154 -164 1154 C-164 1153.34 -164 1152.68 -164 1152 C-164.66 1152 -165.32 1152 -166 1152 C-166 1151.34 -166 1150.68 -166 1150 C-166.66 1150 -167.32 1150 -168 1150 C-168 1148.68 -168 1147.36 -168 1146 C-168.66 1146 -169.32 1146 -170 1146 C-170 1145.34 -170 1144.68 -170 1144 C-170.66 1144 -171.32 1144 -172 1144 C-172 1142.68 -172 1141.36 -172 1140 C-172.66 1140 -173.32 1140 -174 1140 C-174 1139.34 -174 1138.68 -174 1138 C-174.66 1138 -175.32 1138 -176 1138 C-176 1137.34 -176 1136.68 -176 1136 C-176.66 1136 -177.32 1136 -178 1136 C-178 1134.68 -178 1133.36 -178 1132 C-178.66 1132 -179.32 1132 -180 1132 C-180 1131.34 -180 1130.68 -180 1130 C-180.66 1130 -181.32 1130 -182 1130 C-182 1128.68 -182 1127.36 -182 1126 C-182.66 1126 -183.32 1126 -184 1126 C-184 1124.68 -184 1123.36 -184 1122 C-184.66 1122 -185.32 1122 -186 1122 C-186 1120.68 -186 1119.36 -186 1118 C-186.66 1118 -187.32 1118 -188 1118 C-188 1117.34 -188 1116.68 -188 1116 C-188.66 1116 -189.32 1116 -190 1116 C-190 1114.68 -190 1113.36 -190 1112 C-190.66 1112 -191.32 1112 -192 1112 C-192 1110.68 -192 1109.36 -192 1108 C-192.66 1108 -193.32 1108 -194 1108 C-194 1106.68 -194 1105.36 -194 1104 C-194.66 1104 -195.32 1104 -196 1104 C-196 1102.68 -196 1101.36 -196 1100 C-196.66 1100 -197.32 1100 -198 1100 C-198 1098.02 -198 1096.04 -198 1094 C-198.66 1094 -199.32 1094 -200 1094 C-200 1092.68 -200 1091.36 -200 1090 C-200.66 1090 -201.32 1090 -202 1090 C-202 1088.02 -202 1086.04 -202 1084 C-202.66 1084 -203.32 1084 -204 1084 C-204 1082.02 -204 1080.04 -204 1078 C-204.66 1078 -205.32 1078 -206 1078 C-206 1076.68 -206 1075.36 -206 1074 C-206.66 1074 -207.32 1074 -208 1074 C-208 1071.36 -208 1068.72 -208 1066 C-208.66 1066 -209.32 1066 -210 1066 C-210 1063.36 -210 1060.72 -210 1058 C-210.66 1058 -211.32 1058 -212 1058 C-212 1055.36 -212 1052.72 -212 1050 C-212.66 1050 -213.32 1050 -214 1050 C-214 1046.7 -214 1043.4 -214 1040 C-214.66 1040 -215.32 1040 -216 1040 C-216 1035.38 -216 1030.76 -216 1026 C-216.66 1026 -217.32 1026 -218 1026 C-218 759.36 -218 492.72 -218 218 C-217.34 218 -216.68 218 -216 218 C-216 213.38 -216 208.76 -216 204 C-215.34 204 -214.68 204 -214 204 C-214 200.7 -214 197.4 -214 194 C-213.34 194 -212.68 194 -212 194 C-212 190.7 -212 187.4 -212 184 C-211.34 184 -210.68 184 -210 184 C-210 182.02 -210 180.04 -210 178 C-209.34 178 -208.68 178 -208 178 C-208 175.36 -208 172.72 -208 170 C-207.34 170 -206.68 170 -206 170 C-206 168.02 -206 166.04 -206 164 C-205.34 164 -204.68 164 -204 164 C-204 162.68 -204 161.36 -204 160 C-203.34 160 -202.68 160 -202 160 C-202 158.02 -202 156.04 -202 154 C-201.34 154 -200.68 154 -200 154 C-200 152.68 -200 151.36 -200 150 C-199.34 150 -198.68 150 -198 150 C-198 148.02 -198 146.04 -198 144 C-197.34 144 -196.68 144 -196 144 C-196 142.68 -196 141.36 -196 140 C-195.34 140 -194.68 140 -194 140 C-194 138.68 -194 137.36 -194 136 C-193.34 136 -192.68 136 -192 136 C-192 134.68 -192 133.36 -192 132 C-191.34 132 -190.68 132 -190 132 C-190 130.68 -190 129.36 -190 128 C-189.34 128 -188.68 128 -188 128 C-188 126.68 -188 125.36 -188 124 C-187.34 124 -186.68 124 -186 124 C-186 123.34 -186 122.68 -186 122 C-185.34 122 -184.68 122 -184 122 C-184 120.68 -184 119.36 -184 118 C-183.34 118 -182.68 118 -182 118 C-182 116.68 -182 115.36 -182 114 C-181.34 114 -180.68 114 -180 114 C-180 113.34 -180 112.68 -180 112 C-179.34 112 -178.68 112 -178 112 C-178 110.68 -178 109.36 -178 108 C-177.34 108 -176.68 108 -176 108 C-176 107.34 -176 106.68 -176 106 C-175.34 106 -174.68 106 -174 106 C-174 104.68 -174 103.36 -174 102 C-173.34 102 -172.68 102 -172 102 C-172 101.34 -172 100.68 -172 100 C-171.34 100 -170.68 100 -170 100 C-170 99.34 -170 98.68 -170 98 C-169.34 98 -168.68 98 -168 98 C-168 96.68 -168 95.36 -168 94 C-167.34 94 -166.68 94 -166 94 C-166 93.34 -166 92.68 -166 92 C-165.34 92 -164.68 92 -164 92 C-164 91.34 -164 90.68 -164 90 C-163.34 90 -162.68 90 -162 90 C-162 89.34 -162 88.68 -162 88 C-161.34 88 -160.68 88 -160 88 C-160 86.68 -160 85.36 -160 84 C-159.34 84 -158.68 84 -158 84 C-158 83.34 -158 82.68 -158 82 C-157.34 82 -156.68 82 -156 82 C-156 81.34 -156 80.68 -156 80 C-155.34 80 -154.68 80 -154 80 C-154 79.34 -154 78.68 -154 78 C-153.34 78 -152.68 78 -152 78 C-152 77.34 -152 76.68 -152 76 C-151.34 76 -150.68 76 -150 76 C-150 75.34 -150 74.68 -150 74 C-149.34 74 -148.68 74 -148 74 C-148 73.34 -148 72.68 -148 72 C-147.34 72 -146.68 72 -146 72 C-146 71.34 -146 70.68 -146 70 C-145.34 70 -144.68 70 -144 70 C-144 69.34 -144 68.68 -144 68 C-143.34 68 -142.68 68 -142 68 C-142 67.34 -142 66.68 -142 66 C-141.34 66 -140.68 66 -140 66 C-140 65.34 -140 64.68 -140 64 C-139.34 64 -138.68 64 -138 64 C-138 63.34 -138 62.68 -138 62 C-137.34 62 -136.68 62 -136 62 C-136 61.34 -136 60.68 -136 60 C-135.34 60 -134.68 60 -134 60 C-134 59.34 -134 58.68 -134 58 C-132.68 58 -131.36 58 -130 58 C-130 57.34 -130 56.68 -130 56 C-129.34 56 -128.68 56 -128 56 C-128 55.34 -128 54.68 -128 54 C-127.34 54 -126.68 54 -126 54 C-126 53.34 -126 52.68 -126 52 C-125.34 52 -124.68 52 -124 52 C-124 51.34 -124 50.68 -124 50 C-123.34 50 -122.68 50 -122 50 C-122 49.34 -122 48.68 -122 48 C-120.68 48 -119.36 48 -118 48 C-118 47.34 -118 46.68 -118 46 C-117.34 46 -116.68 46 -116 46 C-116 45.34 -116 44.68 -116 44 C-114.68 44 -113.36 44 -112 44 C-112 43.34 -112 42.68 -112 42 C-111.34 42 -110.68 42 -110 42 C-110 41.34 -110 40.68 -110 40 C-108.68 40 -107.36 40 -106 40 C-106 39.34 -106 38.68 -106 38 C-105.34 38 -104.68 38 -104 38 C-104 37.34 -104 36.68 -104 36 C-102.68 36 -101.36 36 -100 36 C-100 35.34 -100 34.68 -100 34 C-98.68 34 -97.36 34 -96 34 C-96 33.34 -96 32.68 -96 32 C-95.34 32 -94.68 32 -94 32 C-94 31.34 -94 30.68 -94 30 C-92.68 30 -91.36 30 -90 30 C-90 29.34 -90 28.68 -90 28 C-88.68 28 -87.36 28 -86 28 C-86 27.34 -86 26.68 -86 26 C-84.68 26 -83.36 26 -82 26 C-82 25.34 -82 24.68 -82 24 C-80.68 24 -79.36 24 -78 24 C-78 23.34 -78 22.68 -78 22 C-76.68 22 -75.36 22 -74 22 C-74 21.34 -74 20.68 -74 20 C-72.02 20 -70.04 20 -68 20 C-68 19.34 -68 18.68 -68 18 C-66.68 18 -65.36 18 -64 18 C-64 17.34 -64 16.68 -64 16 C-62.02 16 -60.04 16 -58 16 C-58 15.34 -58 14.68 -58 14 C-56.68 14 -55.36 14 -54 14 C-54 13.34 -54 12.68 -54 12 C-52.02 12 -50.04 12 -48 12 C-48 11.34 -48 10.68 -48 10 C-45.36 10 -42.72 10 -40 10 C-40 9.34 -40 8.68 -40 8 C-37.36 8 -34.72 8 -32 8 C-32 7.34 -32 6.68 -32 6 C-29.36 6 -26.72 6 -24 6 C-24 5.34 -24 4.68 -24 4 C-20.7 4 -17.4 4 -14 4 C-14 3.34 -14 2.68 -14 2 C-9.38 2 -4.76 2 0 2 C0 1.34 0 0.68 0 0 Z " transform="translate(223,5)" style="fill: #030D21;"/><path d="M0 0 C3.94507626 1.5780305 7.21671955 3.18381352 10.84765625 5.31640625 C12.57036743 6.32622559 12.57036743 6.32622559 14.32788086 7.35644531 C15.56030518 8.08444336 16.79272949 8.81244141 18.0625 9.5625 C19.34584229 10.31756836 20.62918457 11.07263672 21.95141602 11.85058594 C32.0079733 17.78407154 41.99836564 23.8229164 51.96704102 29.90258789 C58.94652702 34.15693337 65.95246902 38.35943751 73 42.5 C179.60252294 105.20504587 179.60252294 105.20504587 185 116 C183.49759766 117.39412109 183.49759766 117.39412109 181.96484375 118.81640625 C180.62233226 120.06503582 179.27988794 121.31373761 177.9375 122.5625 C176.62652344 123.78066406 175.31554688 124.99882812 173.96484375 126.25390625 C171.35854714 128.71640718 168.78541839 131.21458161 166.25 133.75 C163.93599899 136.06400101 161.52772338 138.28532086 159.0625 140.4375 C155.62658229 143.45053553 152.41902349 146.5302971 149.25 149.8125 C146.63578857 152.35409444 143.88847771 154.72656511 141.13671875 157.1171875 C137.68087915 160.16236975 134.34223006 163.33153589 131 166.5 C129.50144329 167.91551409 128.00274196 169.33087509 126.50390625 170.74609375 C125.37686279 171.81126221 125.37686279 171.81126221 124.22705078 172.89794922 C119.49069487 177.36846275 114.733514 181.81677711 109.98046875 186.26953125 C107.27309044 188.80686813 104.56712638 191.34562565 101.86328125 193.88671875 C94.99018956 200.3436043 88.08927141 206.76631741 81.125 213.125 C77.39309477 216.55835281 73.69513558 220.02720658 70 223.5 C63.38097546 229.71962082 56.70423058 235.87247743 50 242 C44.14141163 247.37540582 38.29268238 252.75823281 32.5390625 258.24609375 C31.7761792 258.97159424 31.0132959 259.69709473 30.22729492 260.44458008 C28.72620342 261.87397001 27.2288259 263.30727267 25.7355957 264.74487305 C22.57718037 267.74930962 19.92638501 270.0368075 16 272 C15.97421875 270.94941406 15.9484375 269.89882813 15.921875 268.81640625 C15.18308639 250.53138828 7.26755896 236.8139846 -9.015625 227.76953125 C-46.24285673 210.56395644 -82.16155964 217.94894817 -120.80493164 225.38891602 C-125.81920504 226.34793843 -130.83939413 227.27453888 -135.859375 228.203125 C-151.86869594 231.17772731 -167.8345937 234.24989038 -183.68359375 237.9921875 C-187.52902693 238.89003525 -191.37302177 239.69044107 -195.25 240.4375 C-214.8180851 244.29050791 -233.92124885 249.02898416 -252.74609375 255.67578125 C-260.31520647 258.31646254 -267.03521103 260.44592319 -275.0612793 260.71508789 C-279.00088176 261.09703656 -282.47127091 262.53535918 -286.19189453 263.82373047 C-294.39462056 266.35743569 -302.8588343 267.96048357 -311.25 269.75 C-313.17070509 270.16475296 -315.09127922 270.58011289 -317.01171875 270.99609375 C-321.67299089 272.0043944 -326.33597897 273.00448198 -331 274 C-326.69807336 274 -322.08316527 272.79822621 -317.8125 272.13671875 C-316.56686279 271.94406937 -315.32122559 271.75141998 -314.0378418 271.55293274 C-311.38453876 271.14222909 -308.7313019 270.7310978 -306.078125 270.31958008 C-302.07319852 269.69884525 -298.06786366 269.08079728 -294.0625 268.46289062 C-282.06552184 266.60586245 -270.0821385 264.74675877 -258.15234375 262.49145508 C-253.79617475 261.81232185 -250.2778951 261.93052622 -246 263 C-243.93728361 262.6889315 -241.87483534 262.37608484 -239.8125 262.0625 C-238.66394531 261.88847656 -237.51539063 261.71445312 -236.33203125 261.53515625 C-233.54367395 261.08731926 -230.76924983 260.55384997 -228 260 C-225.00025296 259.96104225 -221.99966591 259.95522887 -219 260 C-220.32 260.66 -221.64 261.32 -223 262 C-221.98421875 261.855625 -220.9684375 261.71125 -219.921875 261.5625 C-207.31013041 259.86204006 -207.31013041 259.86204006 -201 260.0625 C-196.42567219 260.15303613 -192.27685041 259.60603211 -187.7890625 258.7265625 C-186.38043945 258.45303955 -184.97181641 258.1795166 -183.52050781 257.89770508 C-182.02874023 257.6014624 -180.53697266 257.30521973 -179 257 C-177.49018555 256.70182373 -175.98037109 256.40364746 -174.42480469 256.09643555 C-164.98210375 254.22806615 -164.98210375 254.22806615 -155.54296875 252.34179688 C-154.01027344 252.03951172 -152.47757813 251.73722656 -150.8984375 251.42578125 C-149.52349121 251.15161377 -148.14854492 250.87744629 -146.73193359 250.5949707 C-143.40130822 250.06397934 -140.36248093 249.88044949 -137 250 C-140.48065594 252.32043729 -143.19362681 252.85364378 -147.28125 253.734375 C-148.75400391 254.05817139 -150.22675781 254.38196777 -151.74414062 254.71557617 C-153.31357422 255.05693604 -154.88300781 255.3982959 -156.5 255.75 C-167.81364327 258.26699993 -178.85308259 260.94992384 -189.83984375 264.6484375 C-194.21280089 266.06913531 -198.6008053 267.20367647 -203.0625 268.3125 C-225.43062217 274.10408018 -247.67667204 281.12459199 -265 297 C-265.92554688 297.83273437 -266.85109375 298.66546875 -267.8046875 299.5234375 C-280.05515828 311.09521183 -286.61733744 325.01564281 -293.375 340.16796875 C-296.06271128 346.18917785 -298.98748573 352.07044736 -301.97265625 357.94921875 C-304.3842556 362.76777083 -306.6954026 367.62961168 -309 372.5 C-313.21611574 381.39453183 -317.56884556 390.21033301 -322 399 C-329.48426995 413.87436994 -336.9423834 428.75348091 -344.07739258 443.79907227 C-347.13859237 450.24073808 -350.29264186 456.62995602 -353.5 463 C-357.62934814 471.20700662 -361.64460141 479.46118449 -365.59155273 487.75732422 C-369.54501252 496.06452378 -373.54913678 504.34659232 -377.5625 512.625 C-381.88725573 521.54708237 -386.19205076 530.47740299 -390.4375 539.4375 C-394.51035237 548.01764233 -398.71704593 556.523114 -403 565 C-404.00090775 566.99954587 -405.00122193 568.9993895 -406 571 C-409.90014245 559.29957266 -398.64198358 547.42642112 -394 536 C-396.31 540.62 -398.62 545.24 -401 550 C-401.99 551.98 -402.98 553.96 -404 556 C-405.94248086 552.11503828 -401.8796128 546.48318361 -400.25 542.5625 C-399.8065625 541.49322266 -399.363125 540.42394531 -398.90625 539.32226562 C-396.93731278 534.58812981 -394.9447255 529.87638612 -392.8515625 525.1953125 C-391.12075036 521.27359891 -389.59019322 517.33971186 -388.125 513.3125 C-385.32980887 505.76120558 -382.24621805 498.36730338 -379 491 C-381.17936266 493.17936266 -382.24784303 496.73317139 -383.5078125 499.46875 C-384.23935547 501.05494141 -384.97089844 502.64113281 -385.72460938 504.27539062 C-386.5248349 506.01688329 -387.3249626 507.7584209 -388.125 509.5 C-388.94846628 511.28845816 -389.77203505 513.07686914 -390.59570312 514.86523438 C-395.59554832 525.72911361 -400.55989249 536.60881763 -405.5 547.5 C-407.99773665 553.00103122 -410.49772423 558.50103199 -413 564 C-413.6796582 565.49370117 -414.35931641 566.98740234 -415.05957031 568.52636719 C-423.80858041 587.71658275 -432.75309713 606.79536581 -442 625.75 C-442.64355438 627.07182281 -442.64355438 627.07182281 -443.30010986 628.42034912 C-448.54181982 639.17282684 -453.95914102 649.81792167 -459.5625 660.38769531 C-463.44011538 667.72502601 -467.21575295 675.11421369 -471 682.5 C-478.56538842 697.23304737 -486.21542991 711.9133768 -494.015625 726.5234375 C-494.73347168 727.86817139 -495.45131836 729.21290527 -496.19091797 730.59838867 C-497.61570537 733.26592322 -499.0417533 735.93278499 -500.46923828 738.59887695 C-503.72810836 744.69437813 -506.95532358 750.79354422 -510 757 C-511 755 -511 755 -509.609375 751.30078125 C-505.60180389 740.64704311 -505.60180389 740.64704311 -502.125 729.8125 C-497.20129682 713.33703166 -490.66709252 697.37596756 -483 682 C-483 681.34 -483 680.68 -483 680 C-483.46148437 680.88558594 -483.92296875 681.77117188 -484.3984375 682.68359375 C-488.92714574 691.28455941 -493.7032276 699.69152754 -498.703125 708.02734375 C-500.2608204 710.721521 -501.73323809 713.46647619 -503.125 716.25 C-504.92276817 719.84553635 -507.04500506 723.02803506 -509.3046875 726.34375 C-515.46940705 736.0027576 -520.31918876 746.54869568 -525.3359375 756.83203125 C-527 760 -527 760 -529 762 C-528.13455952 757.67279758 -527.14104971 754.87998803 -525.234375 750.9921875 C-524.67363281 749.83976563 -524.11289062 748.68734375 -523.53515625 747.5 C-522.94605469 746.30375 -522.35695313 745.1075 -521.75 743.875 C-513.83082282 728.15728505 -513.83082282 728.15728505 -507.5625 711.75 C-505.45309988 705.22217188 -503.03023483 698.88189744 -500.4296875 692.53515625 C-498.32322413 687.32655146 -496.38914888 682.05766155 -494.44921875 676.78515625 C-488.55707847 660.99003962 -481.93151505 645.52115591 -475.27172852 630.03662109 C-473.96992011 627.03440151 -473.96992011 627.03440151 -473 624 C-473.70382812 625.18851563 -474.40765625 626.37703125 -475.1328125 627.6015625 C-485.21992062 644.56474775 -495.8260233 661.17036306 -506.625 677.6875 C-516.36964656 692.59261799 -525.86827718 707.63166034 -535.01782227 722.91015625 C-538.76893648 729.13200142 -542.77783291 735.08682556 -547 741 C-548 739 -548 739 -546.6875 736.9375 C-544.92940322 734.01038594 -544.92940322 734.01038594 -543.6171875 730.76171875 C-542.0216293 727.05031164 -540.26835833 723.47556064 -538.4375 719.875 C-534.19416811 711.45131702 -530.13813356 702.94576085 -526.1015625 694.421875 C-524.76121719 691.60166887 -523.39643032 688.79286064 -522 686 C-534.97345276 710.51219427 -547.67191384 735.1567235 -560 760 C-560.99 760.66 -561.98 761.32 -563 762 C-561.74741438 758.01313835 -560.28682798 754.34318274 -558.390625 750.62109375 C-557.8860376 749.62376221 -557.3814502 748.62643066 -556.86157227 747.59887695 C-556.32975342 746.55562256 -555.79793457 745.51236816 -555.25 744.4375 C-549.38139225 732.80220332 -543.75224203 721.24504915 -539.16796875 709.03515625 C-537.59545204 704.94871651 -535.82172726 700.98081142 -534 697 C-534 696.34 -534 695.68 -534 695 C-534.87398437 696.39476562 -535.74796875 697.78953125 -536.6484375 699.2265625 C-540.13836408 704.71123366 -543.7329239 710.12321628 -547.3515625 715.5234375 C-547.93572937 716.39575012 -548.51989624 717.26806274 -549.12176514 718.16680908 C-551.55909931 721.80470585 -553.99754861 725.44183688 -556.44091797 729.07568359 C-564.2991963 740.76851267 -571.93214858 752.56538126 -579.28930664 764.58056641 C-581.4328477 768.07533181 -583.60042203 771.54848644 -585.8125 775 C-588.98287854 779.94830794 -592.06018402 784.95147706 -595.1328125 789.9609375 C-597.40155955 793.65358437 -599.69657283 797.32891295 -602 801 C-603.97161505 797.05676989 -599.07012209 790.79685933 -597.25 787 C-596.71117187 785.87464844 -596.17234375 784.74929688 -595.6171875 783.58984375 C-593.34392499 778.84925973 -591.06012911 774.1196457 -588.69921875 769.421875 C-586.84492982 765.68772073 -585.43860781 761.91301326 -584 758 C-581.38579905 751.42350842 -578.53924351 745.09912479 -575.3046875 738.80078125 C-573.72520834 735.41010293 -572.46410406 731.9533366 -571.1875 728.4375 C-569.0657131 722.62849474 -566.68558782 717.07067645 -564 711.5 C-561.41495803 706.12956309 -559.09517453 700.79002397 -557.0625 695.1875 C-552.88284365 683.68773512 -547.85620376 672.438889 -542.25 661.5625 C-540.53268379 658.08016436 -539.10900861 654.76517598 -537.7578125 651.14453125 C-534.92583607 643.70955043 -531.80442899 636.41698666 -528.625 629.125 C-528.04919189 627.80016602 -527.47338379 626.47533203 -526.88012695 625.11035156 C-523.56829408 617.51611336 -520.19085922 609.96309465 -516.6328125 602.48046875 C-513.29999031 595.37629513 -510.16625907 588.17959525 -507 581 C-507.4964502 582.01646606 -507.4964502 582.01646606 -508.00292969 583.0534668 C-514.17615666 595.65165074 -520.47033887 608.102257 -527.54125977 620.22216797 C-531.8326306 627.60889589 -535.78145102 635.14934607 -539.69799805 642.73999023 C-543.33125736 649.76581218 -547.12667908 656.68177553 -551.04296875 663.5546875 C-552.7968024 666.64227488 -554.50278334 669.74934997 -556.1875 672.875 C-558.97137373 678.01385936 -561.96134928 683.00793097 -565 688 C-566 685 -566 685 -564.828125 682.9453125 C-561.3725969 676.76983902 -558.5344933 670.62238573 -556 664 C-555.15477689 661.89222488 -554.30034718 659.788122 -553.4375 657.6875 C-553.04433594 656.72199219 -552.65117188 655.75648438 -552.24609375 654.76171875 C-551 652 -551 652 -549.49609375 649.53125 C-547.82498578 646.70389239 -546.74505327 643.89828435 -545.625 640.8125 C-544.07896942 636.6897518 -542.45109248 632.72816292 -540.4375 628.8125 C-538.41335078 624.81610281 -536.7123907 620.83115179 -535.0690918 616.6706543 C-533.36320724 612.40925416 -531.52581247 608.20542299 -529.6875 604 C-529.26509033 603.03070557 -528.84268066 602.06141113 -528.4074707 601.06274414 C-524.52794662 592.17569528 -520.60653154 583.30717653 -516.6875 574.4375 C-509.71644111 558.65709075 -502.83675117 542.83898103 -496 527 C-494.90004078 524.45318475 -493.80007855 521.90637079 -492.70004272 519.35958862 C-489.0585704 510.92877517 -485.41781409 502.49765241 -481.77734375 494.06640625 C-481.17265762 492.66598587 -481.17265762 492.66598587 -480.55575562 491.23727417 C-477.95337035 485.20972593 -475.35325824 479.18120087 -472.75390625 473.15234375 C-463.93999536 452.72169193 -455.02008225 432.34044797 -446 412 C-445.0414209 409.83751709 -445.0414209 409.83751709 -444.06347656 407.63134766 C-437.94425306 393.83187425 -431.81578776 380.03667243 -425.6328125 366.265625 C-418.51675518 350.4124902 -411.43547663 334.55332737 -404.66503906 318.54882812 C-402.57729883 313.62133666 -400.48717726 308.74375529 -398 304 C-398.88042969 304.2165625 -399.76085937 304.433125 -400.66796875 304.65625 C-402.41013672 305.07390625 -402.41013672 305.07390625 -404.1875 305.5 C-405.91033203 305.91765625 -405.91033203 305.91765625 -407.66796875 306.34375 C-411 307 -411 307 -416 307 C-413.19920646 301.39841292 -404.86400936 301.19900351 -399 299 C-399 297.68 -399 296.36 -399 295 C-400.11632812 295.30292969 -401.23265625 295.60585938 -402.3828125 295.91796875 C-414.86092389 299.25848457 -427.39335237 302.19312699 -440 305 C-442.50074306 305.55918727 -445.00088697 306.12107233 -447.5 306.6875 C-448.4384375 306.89761719 -449.376875 307.10773438 -450.34375 307.32421875 C-453.06943364 307.97370918 -453.06943364 307.97370918 -455.9140625 309.0390625 C-459.2923548 310.09103706 -462.35065012 310.39569899 -465.875 310.6875 C-476.37860962 311.89759327 -486.20073133 315.09615992 -496.27099609 318.18212891 C-499.78312705 319.23469991 -503.3221301 320.15806373 -506.875 321.0625 C-515.38819307 323.28038534 -523.68392814 326.14224335 -532 329 C-532.99 328.67 -533.98 328.34 -535 328 C-518.60872466 320.9861483 -518.60872466 320.9861483 -512.1875 319.4375 C-507.20123364 318.05576354 -503.348602 316.21681701 -498.8125 313.828125 C-490.12585934 309.6628096 -480.99621828 306.43076121 -472 303 C-478.40897901 304.25466785 -484.77073605 305.61208001 -491.125 307.125 C-492.61257813 307.47820312 -494.10015625 307.83140625 -495.6328125 308.1953125 C-496.74398438 308.46085937 -497.85515625 308.72640625 -499 309 C-499.99 308.67 -500.98 308.34 -502 308 C-501.02546875 307.62230469 -500.0509375 307.24460937 -499.046875 306.85546875 C-487.93513531 302.54209343 -476.83851498 298.19128422 -465.74902344 293.82104492 C-459.8498072 291.49923342 -453.94534742 289.20198053 -448 287 C-475.15973822 291.96187525 -502.19322078 298.39752882 -528.55078125 306.6328125 C-538.44373453 309.67278937 -548.4689373 312.28494275 -558.47802734 314.91333008 C-567.37114827 317.25724894 -576.19565564 319.78031506 -585 322.4375 C-586.31508545 322.83291992 -587.6301709 323.22833984 -588.98510742 323.63574219 C-596.50372189 325.90780223 -603.98126076 328.26153124 -611.40991211 330.81445312 C-615.11062891 332.03653274 -618.8315443 333.12629228 -622.578125 334.19921875 C-632.01889492 336.96085644 -641.35192899 340.01600302 -650.67749023 343.13891602 C-653.45733604 344.06913775 -656.23929064 344.99284313 -659.02148438 345.91601562 C-660.82564934 346.51784406 -662.62969033 347.12004433 -664.43359375 347.72265625 C-666.83209595 348.52328491 -666.83209595 348.52328491 -669.27905273 349.34008789 C-674.25394062 351.08928698 -679.11165145 353.02337224 -684 355 C-686.45045824 355.83595062 -688.9083305 356.65067054 -691.375 357.4375 C-695.94788018 358.93590629 -700.39666391 360.52662502 -704.8125 362.4375 C-711.33753276 365.24529488 -718.05432495 367.3843842 -724.80078125 369.59375 C-729.63401329 371.21232073 -734.29004295 373.05321775 -739 375 C-741.22740215 375.85875746 -743.45667896 376.71266341 -745.6875 377.5625 C-750.17034101 379.27933273 -754.60806179 381.05937614 -759 383 C-759.99 382.67 -760.98 382.34 -762 382 C-760.74509766 381.30777344 -760.74509766 381.30777344 -759.46484375 380.6015625 C-750.33318874 375.48459967 -741.65794727 369.87503565 -733 364 C-730.25165277 362.16418993 -727.50155532 360.33099821 -724.75 358.5 C-719.36991884 354.91635005 -713.9940917 351.32665631 -708.625 347.7265625 C-674.5754329 324.91760813 -639.85282287 304.00762936 -603 286 C-608.08482508 287.78745255 -613.16759396 289.58068189 -618.25 291.375 C-619.69503906 291.88289063 -621.14007812 292.39078125 -622.62890625 292.9140625 C-624.01464844 293.40390625 -625.40039062 293.89375 -626.828125 294.3984375 C-628.1059082 294.84880371 -629.38369141 295.29916992 -630.70019531 295.76318359 C-634.17261727 296.99893692 -634.17261727 296.99893692 -638 299 C-640.0109375 299.4021875 -640.0109375 299.4021875 -642.0625 299.8125 C-647.86536411 301.20812555 -652.62779304 303.41590045 -658 306 C-658.99 305.67 -659.98 305.34 -661 305 C-633.24943444 291.03912423 -605.39408931 277.60126091 -577 265 C-572.545 263.02 -572.545 263.02 -568 261 C-580.375 264.465 -580.375 264.465 -593 268 C-593.99 267.67 -594.98 267.34 -596 267 C-591.94201553 265.01147582 -587.87788851 263.03583734 -583.8125 261.0625 C-582.08676758 260.21655273 -582.08676758 260.21655273 -580.32617188 259.35351562 C-579.21435547 258.81533203 -578.10253906 258.27714844 -576.95703125 257.72265625 C-575.93585205 257.22515869 -574.91467285 256.72766113 -573.86254883 256.21508789 C-571 255 -571 255 -566 254 C-565.67 253.01 -565.34 252.02 -565 251 C-532.08236362 236.16283207 -498.46644216 222.78007671 -464 212 C-468.85443835 213.24894641 -473.70849841 214.49935729 -478.5625 215.75 C-479.91537109 216.09804688 -481.26824219 216.44609375 -482.66210938 216.8046875 C-490.69363766 218.87486663 -498.71064457 220.98779077 -506.71069336 223.17675781 C-509.79826201 223.94950935 -512.85419632 224.52581526 -516 225 C-514 223 -514 223 -502 218 C-509.1337513 219.72193997 -516.07447045 221.57606466 -523 224 C-523.99 223.67 -524.98 223.34 -526 223 C-512.36011492 217.33509454 -498.74580488 212.02257848 -484.59008789 207.77734375 C-477.76848878 205.70098217 -471.44595663 203.03428089 -465 200 C-463.10955595 199.21604251 -461.21487628 198.44204128 -459.3125 197.6875 C-454.39016457 195.66742468 -449.67631849 193.35617862 -444.9375 190.9375 C-438.70698547 187.7777814 -432.60492188 185.25533918 -426 183 C-424.47842285 182.3805249 -422.9568457 181.7610498 -421.38916016 181.12280273 C-415.88844891 178.90755455 -410.30040032 177.07240134 -404.6484375 175.28515625 C-403.06187851 174.77872841 -403.06187851 174.77872841 -401.44326782 174.2620697 C-398.08826007 173.19211555 -394.73165563 172.12727162 -391.375 171.0625 C-389.14703145 170.35253971 -386.91916601 169.64225579 -384.69140625 168.93164062 C-375.45471078 165.98809526 -366.21370033 163.05991104 -356.95703125 160.1796875 C-351.71530198 158.54711293 -346.50549366 156.84516947 -341.3125 155.0625 C-333.97812845 152.60096434 -326.59660098 150.40215345 -319.1472168 148.31616211 C-313.70735993 146.78870977 -308.30284833 145.17799471 -302.90966797 143.4934082 C-291.50721686 139.93751494 -280.01664927 136.85088448 -268.43603516 133.92822266 C-261.66965913 132.21901949 -254.93583924 130.43367302 -248.21875 128.5390625 C-238.97006483 125.95236941 -229.66262297 123.68762297 -220.3125 121.5 C-218.65001221 121.1090918 -216.98752441 120.71818359 -215.2746582 120.31542969 C-202.87589412 117.41198656 -190.46732811 114.59430431 -178 112 C-177.06671875 111.80486816 -176.1334375 111.60973633 -175.171875 111.40869141 C-145.87819212 105.3139997 -116.34877278 100.50486476 -86.80957031 95.77636719 C-81.75365332 94.96023439 -76.70085759 94.12655862 -71.6484375 93.2890625 C-69.96016846 93.010625 -68.27189941 92.7321875 -66.5324707 92.4453125 C-63.28822422 91.90983732 -60.0445418 91.37093018 -56.80151367 90.828125 C-55.34205322 90.58835937 -53.88259277 90.34859375 -52.37890625 90.1015625 C-51.0957251 89.88838379 -49.81254395 89.67520508 -48.49047852 89.45556641 C-45.2754967 89.03595697 -42.23677587 88.91222514 -39 89 C-42.74066868 90.87033434 -45.24882304 91.52945659 -49.3125 92.18359375 C-50.55386719 92.38919922 -51.79523437 92.59480469 -53.07421875 92.80664062 C-54.36972656 93.01482422 -55.66523437 93.22300781 -57 93.4375 C-65.15793744 94.75557654 -73.14998914 96.22689894 -81.14648438 98.31518555 C-85.80235421 99.43254651 -90.50652823 100.06657344 -95.25 100.6875 C-96.19746094 100.81705078 -97.14492188 100.94660156 -98.12109375 101.08007812 C-100.41326197 101.39264652 -102.70651972 101.69720906 -105 102 C-98.49988871 101.60160608 -92.10176476 101.09255917 -85.6875 99.9375 C-81.0687407 99.10943558 -76.70612235 98.81899529 -72 99 C-75.48856607 100.74428304 -77.7091999 101.45957504 -81.453125 102.11328125 C-82.53682373 102.30704346 -83.62052246 102.50080566 -84.73706055 102.70043945 C-86.47596558 103.00340942 -86.47596558 103.00340942 -88.25 103.3125 C-101.22063706 105.63681987 -114.11376196 108.24953139 -127 111 C-118.55064133 110.22586881 -110.27852292 108.65265988 -101.9375 107.125 C-89.72699297 104.92347006 -77.55468212 103.03222172 -65.2265625 101.640625 C-61.62339889 101.19898163 -58.11113029 100.69450058 -54.54296875 100.0703125 C-45.96707151 98.6025147 -37.32514786 97.65110427 -28.6875 96.625 C-24.99717762 96.18409803 -21.30710084 95.74118687 -17.6171875 95.296875 C-16.70332779 95.18693207 -15.78946808 95.07698914 -14.84791565 94.9637146 C-9.47855255 94.31342202 -4.11638489 93.62431054 1.2421875 92.890625 C21.4409868 90.12734785 41.66585081 88.43811957 62 87 C56.36586737 79.55489616 54.06957836 79.00695784 44 78 C43.34 77.34 42.68 76.68 42 76 C47.94 76 53.88 76 60 76 C56.17638605 71.22048256 53.19069962 69.02790811 48 66 C39.86815562 55.20222129 31.81521286 44.34933768 23.80859375 33.45849609 C21.96806415 30.95658828 20.12506362 28.45651968 18.28125 25.95703125 C0 1.17373709 0 1.17373709 0 0 Z " transform="translate(882,159)" style="fill: #FBFBFB;"/><path d="M0 0 C9.27891802 -0.48202172 17.41752552 0.95708514 26.46875 2.9921875 C29.98167783 3.7735111 33.4468849 4.45106368 37 5 C46.85666657 6.55704747 56.60747024 8.78655946 66.33984375 10.9765625 C69.80343717 11.73721755 73.26433561 12.45957238 76.7421875 13.1484375 C77.74636719 13.34953125 78.75054688 13.550625 79.78515625 13.7578125 C81.8360475 14.16747219 83.88813819 14.57117453 85.94140625 14.96875 C92.93439394 16.38346454 99.32738399 18.47564839 106 21 C107.4025 21.309375 108.805 21.61875 110.25 21.9375 C115.6829167 23.15275768 120.81066427 24.90452347 126.07421875 26.703125 C129.85983307 27.9536961 133.65822238 29.06124901 137.5 30.125 C142.19689986 31.4413957 146.56286533 32.95209169 151 35 C153.41563552 35.96790875 155.83148594 36.93528915 158.24902344 37.8984375 C183.83777601 48.14483895 216.49100227 61.47300681 226 90 C226.07047348 92.89505064 226.08427313 95.79167358 226.0625 98.6875 C226.05347656 100.23824219 226.04445313 101.78898438 226.03515625 103.38671875 C226 107 226 107 224.578125 109.328125 C222.95797424 111.96266234 222.95797424 111.96266234 221.75 114.75 C212.23454093 132.42156684 194.61831593 142.8982572 178 153 C180.31 152.34 182.62 151.68 185 151 C185 151.66 185 152.32 185 153 C193.415 148.545 193.415 148.545 202 144 C202.66 144.33 203.32 144.66 204 145 C156.3072776 175.53893669 102.8355094 197.02321985 50 217 C47.8329228 217.83226516 45.66621992 218.66550606 43.5 219.5 C39.16666667 221.16666667 34.83333333 222.83333333 30.5 224.5 C28.88738281 225.12068359 28.88738281 225.12068359 27.2421875 225.75390625 C25.10236839 226.57631866 22.96175773 227.39667487 20.8203125 228.21484375 C15.06284959 230.41788274 9.33426448 232.67466416 3.625 235 C-2.70254101 237.54668833 -9.09771942 239.74164134 -15.58203125 241.8515625 C-18.421843 242.80573925 -21.21844374 243.8873775 -24 245 C-29.44522711 247.17809085 -34.95394415 249.01329527 -40.5234375 250.84375 C-44.39026721 252.12979674 -48.19510938 253.5414586 -52 255 C-55.663045 256.34330464 -59.33214344 257.66989817 -63 259 C-64.69125 259.61875 -66.3825 260.2375 -68.125 260.875 C-74.94338209 263.35488232 -81.80008279 265.72068933 -88.65820312 268.08789062 C-94.13567445 269.98464392 -99.57812549 271.94817011 -105 274 C-109.65920969 275.68763191 -114.33049214 277.34110332 -119 279 C-120.17071045 279.41604492 -121.3414209 279.83208984 -122.54760742 280.26074219 C-135.63097723 284.89448809 -148.75321793 289.41405532 -161.875 293.9375 C-182.23911515 300.95799843 -182.23911515 300.95799843 -202.578125 308.05078125 C-203.9123349 308.51883934 -203.9123349 308.51883934 -205.27349854 308.99635315 C-206.14842957 309.30330612 -207.0233606 309.61025909 -207.92480469 309.92651367 C-240.02758933 321.1878749 -272.27888221 331.94055127 -304.73852539 342.12817383 C-323.60704903 348.08116674 -342.3064697 354.52155044 -361 361 C-361.99 360.67 -362.98 360.34 -364 360 C-362.33324219 359.28199219 -360.66648437 358.56398438 -358.94921875 357.82421875 C-346.84992139 352.60096842 -334.7641335 347.34938685 -322.71484375 342.01171875 C-321.75573593 341.58696762 -320.79662811 341.16221649 -319.80845642 340.72459412 C-315.02919819 338.60722791 -310.25143018 336.48656677 -305.4753418 334.36206055 C-303.69452305 333.57204796 -301.913681 332.78208793 -300.1328125 331.9921875 C-298.56418457 331.29464355 -296.99555664 330.59709961 -295.37939453 329.87841797 C-291.29126125 328.12492831 -287.17848028 326.52372035 -283 325 C-295.10637018 327.59145943 -306.67861314 331.46951729 -318.35009766 335.55810547 C-324.99008829 337.84250986 -330.96125182 339.4151991 -338 340 C-339.65 340.66 -341.3 341.32 -343 342 C-344.32 341.67 -345.64 341.34 -347 341 C-345.86570557 340.53625977 -344.73141113 340.07251953 -343.56274414 339.59472656 C-339.31864708 337.85883036 -335.07505409 336.12171284 -330.83178711 334.38378906 C-329.00190683 333.63460772 -327.17183214 332.88590105 -325.34155273 332.13769531 C-322.69722955 331.0566147 -320.05363107 329.97377813 -317.41015625 328.890625 C-315.82340088 328.24125977 -314.23664551 327.59189453 -312.60180664 326.92285156 C-308.03447992 325.01440733 -303.5152264 323.0278081 -299 321 C-299.66 320.67 -300.32 320.34 -301 320 C-293.61241167 316.1932353 -286.13174468 312.88410857 -278.4375 309.75 C-275.86572872 308.69439209 -273.29412413 307.63837803 -270.72265625 306.58203125 C-269.33191895 306.01178223 -267.94118164 305.4415332 -266.50830078 304.85400391 C-259.00817442 301.76963482 -251.52144699 298.6530107 -244.03265381 295.54125977 C-193.0327978 274.36032606 -193.0327978 274.36032606 -180 270 C-187.56965203 271.74842506 -195.13279865 273.51801462 -202.6640625 275.42578125 C-203.65148437 275.67569824 -204.63890625 275.92561523 -205.65625 276.18310547 C-207.53993721 276.66177269 -209.42285039 277.14350474 -211.3046875 277.62939453 C-218.09068035 279.35314097 -224.91630541 280.85732146 -231.76171875 282.32421875 C-243.96156816 284.94587303 -256.07495626 287.87913175 -268.1875 290.875 C-270.34476208 291.40643622 -272.50207051 291.93768428 -274.65942383 292.46875 C-279.85366559 293.74835966 -285.04690635 295.03197475 -290.23974609 296.31726074 C-294.12799077 297.27900462 -298.01722326 298.23673673 -301.90625 299.1953125 C-304.33346648 299.79633753 -306.7605637 300.39784457 -309.1875 301 C-310.21576904 301.25378418 -311.24403809 301.50756836 -312.3034668 301.76904297 C-317.47558368 303.06067012 -322.60386434 304.45177054 -327.72265625 305.94140625 C-336.86313983 308.57910835 -346.11511523 310.72313626 -355.37109375 312.91210938 C-362.53995787 314.62493412 -369.65956127 316.4367718 -376.75390625 318.4375 C-386.6734189 321.22806418 -396.66866241 323.65723547 -406.6875 326.0625 C-417.33070169 328.62424372 -427.95790575 331.20721818 -438.52612305 334.06420898 C-444.19252992 335.59062247 -449.87899886 337.0388118 -455.5625 338.5 C-462.52507349 340.29461497 -469.47714704 342.09281817 -476.375 344.125 C-483.6127498 346.2416158 -490.94871334 347.90901422 -498.2890625 349.62890625 C-507.90379834 351.90874109 -517.44847426 354.47088809 -527 357 C-528.32 356.67 -529.64 356.34 -531 356 C-513.74772814 350.35038809 -496.50519017 344.81964795 -479 340 C-477.2571875 339.51402344 -475.514375 339.02804687 -473.71875 338.52734375 C-469.48065747 337.34607417 -465.24112561 336.17032282 -461 335 C-462.62808594 335.433125 -462.62808594 335.433125 -464.2890625 335.875 C-465.71992188 336.24625 -467.15078125 336.6175 -468.625 337 C-470.04039062 337.37125 -471.45578125 337.7425 -472.9140625 338.125 C-476.45364186 338.88299787 -479.40582277 339.18140958 -483 339 C-483.66 339.66 -484.32 340.32 -485 341 C-490.45341629 342.44451182 -495.91194026 343.86769059 -501.37573242 345.27246094 C-503.22843847 345.75184481 -505.07972823 346.23674117 -506.92944336 346.72753906 C-517.41818714 349.50638981 -527.08325369 351.65615305 -538 351 C-535 348 -535 348 -529.9375 346.12890625 C-527.62495838 345.27355001 -525.31246184 344.41807189 -523 343.5625 C-521.77917725 343.11092529 -520.55835449 342.65935059 -519.30053711 342.1940918 C-512.36968023 339.62758944 -505.44629887 337.04268302 -498.53173828 334.43261719 C-481.15814876 327.87859411 -463.63476439 321.81436072 -446 316 C-448.97 316.66 -451.94 317.32 -455 318 C-456.32 317.67 -457.64 317.34 -459 317 C-450.15189853 314.4480653 -441.3286081 312.0119016 -432.3125 310.125 C-421.33391728 307.75669438 -410.70002567 304.37885068 -400 301 C-397.33342138 300.16638498 -394.66676449 299.33302025 -392 298.5 C-390.74832031 298.108125 -389.49664062 297.71625 -388.20703125 297.3125 C-372.88159266 292.53130468 -357.56750167 287.94182948 -342 284 C-354.64329598 286.56387343 -354.64329598 286.56387343 -367.1875 289.5625 C-371.55920342 290.69009798 -375.93227423 291.57090707 -380.375 292.375 C-388.00922516 293.76237361 -395.55515571 295.44162598 -403.11083984 297.19873047 C-407.27203836 298.16405527 -411.42936964 299.08337517 -415.62304688 299.89770508 C-421.21929912 301.04495712 -426.72842548 302.39238604 -432.2578125 303.8203125 C-433.28687714 304.08383514 -434.31594177 304.34735779 -435.37619019 304.61886597 C-438.62643066 305.45178316 -441.87572421 306.28832836 -445.125 307.125 C-447.34368813 307.69425161 -449.56243757 308.26326433 -451.78125 308.83203125 C-457.1882124 310.21859451 -462.59432931 311.60840977 -468 313 C-469.32 312.67 -470.64 312.34 -472 312 C-452.08768004 305.68633757 -431.90653067 300.41626288 -411.4375 296.25 C-397.18584266 293.27945991 -383.10418279 289.59548984 -369 286 C-366.73431152 285.42378906 -366.73431152 285.42378906 -364.42285156 284.8359375 C-359.82270286 283.66481429 -355.22360305 282.48967691 -350.625 281.3125 C-348.53478516 280.77846558 -348.53478516 280.77846558 -346.40234375 280.23364258 C-339.56264292 278.47459559 -332.74797116 276.65566176 -325.953125 274.73046875 C-312.08866787 270.85453633 -298.0949438 267.47132905 -284.125 264 C-281.29291331 263.29449336 -278.4608817 262.58876556 -275.62890625 261.8828125 C-265.68451429 259.40458053 -255.73969387 256.92808084 -245.79296875 254.45922852 C-244.01040787 254.01582312 -242.22785505 253.57238532 -240.4453125 253.12890625 C-238.96305176 252.76095947 -237.48079102 252.3930127 -235.95361328 252.01391602 C-231.08461976 250.76524798 -226.26298365 249.37819217 -221.4375 247.97265625 C-211.70962423 245.22010958 -201.90995514 242.98199103 -192 241 C-186.65400415 239.716961 -181.32890996 238.35198045 -176 237 C-172.00073437 235.99705808 -168.00033267 234.99867614 -164 234 C-161.92706434 233.4818468 -159.85414736 232.9636189 -157.78125 232.4453125 C-153.02083333 231.25520833 -148.26041667 230.06510417 -143.5 228.875 C-142.33412354 228.58318848 -141.16824707 228.29137695 -139.96704102 227.99072266 C-137.42716916 227.35641901 -134.88669516 226.7245186 -132.34545898 226.09570312 C-122.72243005 223.7084028 -113.13940049 221.1902412 -103.5625 218.625 C-92.21893047 215.60054434 -80.85771224 212.71612954 -69.43017578 210.02783203 C-62.10650632 208.29515606 -54.8677252 206.33417109 -47.62890625 204.2734375 C-42.23381024 202.78921699 -36.80972584 201.45494012 -31.375 200.125 C-22.05194005 197.83452352 -12.829556 195.28760997 -3.63232422 192.53564453 C1.49964103 191.00286128 6.64074618 189.56036273 11.82421875 188.2109375 C53.22501554 177.24227872 94.66663361 163.23595802 133.51318359 145.15234375 C135.87902304 144.05605844 138.26144039 142.9957607 140.64453125 141.9375 C162.37421165 132.13047409 185.7520969 119.54538682 196 97 C194.3802628 71.08420479 178.17073944 59.51346792 155.60546875 48.73828125 C152 47 152 47 147.5 44.375 C135.83048619 38.21608993 122.92141922 34.60531021 110.3125 30.875 C107.51686094 30.03928374 104.72128714 29.20334913 101.92578125 28.3671875 C99.90396729 27.76741089 99.90396729 27.76741089 97.84130859 27.15551758 C94.40075901 26.12055373 90.98054297 25.03577982 87.55859375 23.94140625 C79.72733407 21.52528294 71.75384875 19.80250426 63.75 18.0625 C62.17057617 17.71622559 60.59115234 17.36995117 58.96386719 17.01318359 C33.24812189 11.32286954 33.24812189 11.32286954 7.21484375 7.46875 C3.21014497 6.8848328 -0.32669165 5.68359966 -4 4 C-4 3.67 -4 3.34 -4 3 C-1.69 3 0.62 3 3 3 C2.01 2.01 1.02 1.02 0 0 Z " transform="translate(722,712)" style="fill: #F3F3F4;"/><path d="M0 0 C13.83097791 6.91548896 23.83569362 20.91039974 24.4375 36.375 C23.35304514 75.23463261 -28.91342302 98.5166045 -58.03515625 114.78125 C-64.04733225 118.14569923 -70.02343199 121.57281178 -76 125 C-77.32 125 -78.64 125 -80 125 C-80 125.66 -80 126.32 -80 127 C-87.08947407 130.67602359 -94.22792768 134.05698192 -102 136 C-102.33 137.65 -102.66 139.3 -103 141 C-124.95421573 151.05909351 -124.95421573 151.05909351 -134.6015625 154.984375 C-136.85852028 155.94009002 -139.05778658 157.02889329 -141.25 158.125 C-145 160 -145 160 -148.6875 161.375 C-152.24242179 162.71453575 -155.57419904 164.18619498 -159 165.8125 C-165.35157296 168.79234156 -171.84205566 171.21940502 -178.42578125 173.6328125 C-182.1257012 174.98106086 -182.1257012 174.98106086 -186 177 C-191.06386216 179.53193108 -196.29192515 181.40769345 -201.609375 183.33984375 C-206.0789565 185.02985455 -210.47417374 186.85400433 -214.87939453 188.70336914 C-219.91107099 190.79406181 -224.98673335 192.7693159 -230.0625 194.75 C-243.13596481 199.86821202 -256.1946033 205.02342572 -269.25 210.1875 C-271.20971669 210.96256538 -273.16943348 211.73763049 -275.12915039 212.51269531 C-279.75288847 214.3414897 -284.37648647 216.17063798 -289 218 C-289.99 217.67 -290.98 217.34 -292 217 C-289.69 216.01 -287.38 215.02 -285 214 C-305.26313474 214 -329.56843767 228.72770842 -348.04980469 237.05712891 C-367.43043071 245.75656202 -387.33645851 252.76414268 -407.44921875 259.56640625 C-408.6567128 259.97490814 -409.86420685 260.38341003 -411.10829163 260.80429077 C-417.1767611 262.85502373 -423.24803896 264.89678451 -429.32446289 266.92382812 C-445.05716645 272.19379252 -460.56242828 277.92015634 -476 284 C-476.99 283.67 -477.98 283.34 -479 283 C-477.98091553 282.58339111 -476.96183105 282.16678223 -475.91186523 281.73754883 C-458.54184664 274.63309335 -441.17479821 267.52421198 -423.875 260.25 C-422.6267041 259.72599609 -421.3784082 259.20199219 -420.09228516 258.66210938 C-415.16222141 256.5921126 -410.23249338 254.52145832 -405.30810547 252.43798828 C-390.14685206 246.02693251 -374.92489366 240.05796125 -359.390625 234.61328125 C-351.26440091 231.75945485 -343.19431492 228.76035402 -335.125 225.75 C-322.42582582 221.01654324 -309.71832198 216.30679156 -297 211.625 C-295.48293457 211.06651367 -293.96586914 210.50802734 -292.40283203 209.93261719 C-289.45396703 208.84722849 -286.50459474 207.76321692 -283.5546875 206.68066406 C-280.28483505 205.47409973 -277.01979568 204.25770683 -273.7578125 203.03027344 C-272.890354 202.7057016 -272.02289551 202.38112976 -271.12915039 202.04672241 C-268.69036603 201.13380212 -266.25333581 200.21619983 -263.81640625 199.29833984 C-260 198 -260 198 -257 198 C-257 197.34 -257 196.68 -257 196 C-257.66 195.67 -258.32 195.34 -259 195 C-258.01 195 -257.02 195 -256 195 C-256.33 193.68 -256.66 192.36 -257 191 C-256.01 190.67 -255.02 190.34 -254 190 C-254.33 188.68 -254.66 187.36 -255 186 C-251.42928507 183.3219638 -249.54418994 182.36083479 -245.4375 181.125 C-240.43823095 179.53542659 -235.77380164 177.63554234 -231.05859375 175.34375 C-227.44343622 173.75548156 -223.74584825 172.44374714 -220.03051758 171.11083984 C-214.84893442 169.21152434 -209.74149703 167.12944227 -204.625 165.0625 C-191.62844097 159.83150803 -191.62844097 159.83150803 -185.25 157.4375 C-178.66569763 154.93724464 -172.22181898 152.11041201 -165.75952148 149.31420898 C-159.66006662 146.68399584 -153.52430414 144.19974007 -147.30078125 141.875 C-145.01860802 141.05099811 -145.01860802 141.05099811 -143 140 C-150.34359298 138.25443376 -150.34359298 138.25443376 -162 144 C-163.32 143.67 -164.64 143.34 -166 143 C-158.19169267 139.70396996 -150.34049044 136.55911588 -142.43652344 133.50024414 C-127.01397934 127.51308085 -111.90670254 121.16726304 -97 114 C-95.30479198 113.18988551 -93.60947048 112.38000845 -91.9140625 111.5703125 C-87.01772906 109.22920527 -82.12864169 106.87341564 -77.24328613 104.50949097 C-75.28583548 103.56323548 -73.32714253 102.61954444 -71.36706543 101.67874146 C-59.30117554 95.87761258 -47.67506223 89.65457347 -36.27636719 82.62670898 C-25.31624927 75.89458358 -25.31624927 75.89458358 -22 77 C-18.76091641 74.26900796 -15.55950526 71.55950526 -12.5625 68.5625 C-10.53994918 66.53994918 -8.41151169 64.62331013 -6.25 62.75 C8.39760791 49.95058367 16 40.3208038 16 20 C11.49706911 12.65311275 6.24899043 6.91554628 0 1 C0 0.67 0 0.34 0 0 Z " transform="translate(963,788)" style="fill: #264580;"/><path d="M0 0 C7.71530463 2.20437275 15.2456517 4.81888918 22.80078125 7.51953125 C26.37318357 8.77901076 29.95593615 9.96852262 33.5625 11.125 C38.2903119 12.67731971 42.56050384 14.74386261 47 17 C49.98474219 18.04465977 52.98166929 19.05677165 56 20 C55.67 19.34 55.34 18.68 55 18 C70.55059202 22.77201373 83.88051342 32.3599087 94 45 C93.35355339 40.11785113 93.35355339 40.11785113 91 37 C95.3039333 39.15196665 95.79013667 40.11435913 98.4375 43.875 C99.39462891 45.23238281 99.39462891 45.23238281 100.37109375 46.6171875 C104.67256097 52.90950165 104.5864123 60.27537981 101.5625 67.375 C91.9788534 84.67231337 74.01798641 95.2432551 56 102 C53.87113542 102.90765544 51.74649329 103.82524652 49.625 104.75 C43.90012274 107.20971458 38.14995791 109.59764636 32.375 111.9375 C30.87710938 112.54464844 29.37921875 113.15179687 27.8359375 113.77734375 C12.70544357 119.66173861 -2.77323198 124.62163782 -18.25 129.5 C-19.13211151 129.77903168 -20.01422302 130.05806335 -20.92306519 130.34555054 C-61.84813382 143.28796654 -61.84813382 143.28796654 -67 142 C-64.59654297 141.27683594 -64.59654297 141.27683594 -62.14453125 140.5390625 C-60.03381891 139.90115833 -57.92314376 139.26313105 -55.8125 138.625 C-54.75740234 138.30789063 -53.70230469 137.99078125 -52.61523438 137.6640625 C-51.59365234 137.3546875 -50.57207031 137.0453125 -49.51953125 136.7265625 C-48.58214111 136.44377441 -47.64475098 136.16098633 -46.67895508 135.86962891 C-44.07991959 135.02594309 -41.53710248 134.01484099 -39 133 C-41.64 133.33 -44.28 133.66 -47 134 C-46.01 133.67 -45.02 133.34 -44 133 C-44 132.34 -44 131.68 -44 131 C-42.68 130.34 -41.36 129.68 -40 129 C-40 128.34 -40 127.68 -40 127 C-35.71 125.68 -31.42 124.36 -27 123 C-37.25762648 124.67071441 -47.24639307 127.24892113 -57.3125 129.8125 C-80.90196306 135.76567511 -80.90196306 135.76567511 -91.0625 138.125 C-92.66222656 138.49882813 -94.26195312 138.87265625 -95.91015625 139.2578125 C-99.71753655 139.94874111 -103.14251896 140.1536845 -107 140 C-106.67 139.01 -106.34 138.02 -106 137 C-113.6097186 137.55953813 -120.64383573 138.99032626 -128 141 C-129.32 140.67 -130.64 140.34 -132 140 C-119.03065022 136.46497127 -106.04862992 132.99871946 -93.01855469 129.69360352 C-77.49815092 125.75397878 -62.10594278 121.53259669 -46.79248047 116.85253906 C-34.09541053 112.97614737 -34.09541053 112.97614737 -30 114 C-31.98 114.99 -33.96 115.98 -36 117 C-28.17220098 117 -20.6444064 113.54337408 -13.25 111.125 C-12.34562195 110.83066071 -11.4412439 110.53632141 -10.50946045 110.23306274 C3.09281574 105.79230099 16.42840289 100.96845905 29.49365234 95.11572266 C31.97875325 94.00945818 34.48357069 92.94783732 36.98828125 91.88671875 C53.24703343 84.92640505 68.84422964 77.31154072 77 61 C77 42.31332982 66.35941339 33.63052753 51 25 C49.55625 24.071875 48.1125 23.14375 46.625 22.1875 C32.42597351 13.71245607 16.62901647 8.17087673 1 3 C0.67 2.01 0.34 1.02 0 0 Z " transform="translate(796,747)" style="fill: #052A73;"/><path d="M0 0 C7.71771291 0.58543243 14.93526866 2.0028668 22.4375 3.875 C23.49259766 4.13152344 24.54769531 4.38804687 25.63476562 4.65234375 C30.76264758 5.90828038 35.86772476 7.22470905 40.95703125 8.62890625 C45.94450965 9.98491316 50.93122609 10.9995841 56 12 C61.93263213 13.60521343 67.77418583 15.4976422 73.625 17.375 C79.77687795 19.34648257 85.93050092 21.29070658 92.125 23.125 C98.27733288 25.0180255 104.10440068 27.42612841 110 30 C111.81481318 30.77802287 113.62994738 31.55529711 115.4453125 32.33203125 C168.56608709 55.13217419 168.56608709 55.13217419 179 76 C179 90 179 90 177 92 C176.01 86.72 175.02 81.44 174 76 C167.87194938 66.54529334 159.25837653 58.6083395 148 57 C147.67 56.01 147.34 55.02 147 54 C143.7 53.67 140.4 53.34 137 53 C137.68964844 53.52207031 138.37929688 54.04414062 139.08984375 54.58203125 C151.27071885 64.12288129 163.46036692 76.44202085 163.125 92.875 C163.10695313 94.02742187 163.08890625 95.17984375 163.0703125 96.3671875 C162.68066123 110.95746289 150.36961441 123.16588629 141 133 C140.33742188 133.73863281 139.67484375 134.47726562 138.9921875 135.23828125 C106.84925373 169.78868172 54.79282255 194.89547532 12.45751953 214.41235352 C8.34675171 216.32040629 4.50472083 218.31379601 0.671875 220.7421875 C-3 223 -3 223 -8 224 C-9.32 225.32 -10.64 226.64 -12 228 C-12.73863281 228.30292969 -13.47726562 228.60585938 -14.23828125 228.91796875 C-15.25277344 229.33691406 -16.26726562 229.75585938 -17.3125 230.1875 C-18.29863281 230.59355469 -19.28476562 230.99960937 -20.30078125 231.41796875 C-23.12782837 232.62700157 -25.9326752 233.88807224 -28.7265625 235.171875 C-36.25315658 238.60866717 -43.88719982 241.79129616 -51.51586914 244.9934082 C-54.06150561 246.06208255 -56.60602131 247.13339085 -59.15039062 248.20507812 C-67.07543047 251.5371616 -75.00823788 254.83174479 -83 258 C-88.39870691 260.18042118 -93.79300607 262.37167994 -99.1875 264.5625 C-100.60998047 265.13935547 -102.03246094 265.71621094 -103.49804688 266.31054688 C-104.87412109 266.86935547 -106.25019531 267.42816406 -107.66796875 268.00390625 C-108.90828857 268.50736572 -110.1486084 269.0108252 -111.42651367 269.52954102 C-113.78709018 270.50089801 -116.13198872 271.51137281 -118.45825195 272.56225586 C-122.25966149 274.10540749 -126.01880933 275.02318523 -130 276 C-132.47218432 276.88637014 -134.92818431 277.81900224 -137.3671875 278.79296875 C-139.42658569 279.61051636 -139.42658569 279.61051636 -141.52758789 280.44458008 C-142.96223389 281.01974365 -144.39687988 281.59490723 -145.875 282.1875 C-148.82931819 283.36225304 -151.78374454 284.53673415 -154.73828125 285.7109375 C-156.15705566 286.27651367 -157.57583008 286.84208984 -159.03759766 287.42480469 C-180.78705109 296.07098297 -180.78705109 296.07098297 -184 295 C-178.7530756 292.65203675 -173.50608423 290.30422324 -168.2590332 287.95654297 C-166.47743967 287.1593827 -164.69586382 286.36218291 -162.91430664 285.56494141 C-160.34005408 284.4129796 -157.76573603 283.26116424 -155.19140625 282.109375 C-153.64654541 281.41811523 -152.10168457 280.72685547 -150.51000977 280.01464844 C-147.40152273 278.62606862 -144.29052551 277.24309908 -141.17749023 275.86474609 C-136.90353484 273.95693993 -132.7066025 271.92682185 -128.5 269.875 C-117.70045269 264.67495511 -106.72900412 259.86757104 -95.75 255.0625 C-94.85568268 254.67104797 -93.96136536 254.27959595 -93.03994751 253.87628174 C-85.6594174 250.64739877 -78.27495265 247.42756342 -70.89013672 244.20849609 C-67.48821495 242.72470319 -64.0877778 241.23755502 -60.6875 239.75 C-59.75454102 239.34531494 -58.82158203 238.94062988 -57.86035156 238.52368164 C-53.15999433 236.46716754 -48.55044376 234.29429099 -43.97265625 231.9765625 C-37.03195756 228.46911949 -29.91475464 225.52529515 -22.734375 222.5390625 C-16.75595973 219.96738726 -10.97513824 217.02516258 -5.16748047 214.09228516 C0.11545036 211.43998772 5.44007773 208.87980389 10.76806641 206.31958008 C63.20708223 181.33713895 63.20708223 181.33713895 112 150 C113.36898437 149.01 113.36898437 149.01 114.765625 148 C133.00931951 134.62765847 156.27534564 117.21544033 156.0625 92.3125 C156.04896484 90.26482422 156.04896484 90.26482422 156.03515625 88.17578125 C155.78567262 65.63909343 124.7159577 50.74578822 108.0078125 42.04296875 C104.01537037 40.00783499 100.01170087 37.99687571 96 36 C98 35 98 35 108 39 C109.65 39 111.3 39 113 39 C109.21667377 36.56786171 105.46877637 34.92309176 101.25 33.375 C99.82429688 32.85164062 98.39859375 32.32828125 96.9296875 31.7890625 C95.30289062 31.19867187 93.67609375 30.60828125 92 30 C90.14839372 29.32043176 88.29683341 28.64073829 86.4453125 27.9609375 C74.64234916 23.64909679 62.78308625 19.51233413 50.875 15.5 C49.60060059 15.06655273 48.32620117 14.63310547 47.01318359 14.18652344 C45.20841553 13.58372559 45.20841553 13.58372559 43.3671875 12.96875 C41.77559814 12.43411133 41.77559814 12.43411133 40.15185547 11.88867188 C36.77709077 10.9371503 33.4702602 10.47627076 30 10 C26.98910449 9.03330034 23.99002759 8.02943431 21 7 C17.32418531 5.89598507 13.63155811 4.85362285 9.9375 3.8125 C8.49600586 3.40354492 8.49600586 3.40354492 7.02539062 2.98632812 C4.68411333 2.32238382 2.34213005 1.66092985 0 1 C0 0.67 0 0.34 0 0 Z " transform="translate(863,738)" style="fill: #175DD9;"/><path d="M0 0 C-0.99 0.33 -1.98 0.66 -3 1 C-3 1.66 -3 2.32 -3 3 C-4.98 3.33 -6.96 3.66 -9 4 C-9.33 4.66 -9.66 5.32 -10 6 C-10.95438965 6.15033691 -11.9087793 6.30067383 -12.89208984 6.45556641 C-37.46446404 10.35683258 -61.51355811 15.02060395 -85.5 21.625 C-86.50893311 21.90206787 -87.51786621 22.17913574 -88.55737305 22.46459961 C-94.89673056 24.2598206 -100.92017061 26.45934137 -107 29 C-107.66 29 -108.32 29 -109 29 C-109.495 30.485 -109.495 30.485 -110 32 C-113.63 33.98 -117.26 35.96 -121 38 C-124.6 41.96666667 -124.6 41.96666667 -124 48 C-122.02 49.32 -120.04 50.64 -118 52 C-120 53 -120 53 -123 51 C-125.9878344 49.96421741 -128.98715809 48.96061626 -132 48 C-133.65 46.02 -135.3 44.04 -137 42 C-137.33 43.32 -137.66 44.64 -138 46 C-132.52429586 49.45207435 -127.18529321 51.17613149 -121 53 C-119.30911553 53.95848187 -117.63533514 54.94954451 -116 56 C-114.64068359 56.18175781 -114.64068359 56.18175781 -113.25390625 56.3671875 C-112.03574219 56.53476562 -110.81757812 56.70234375 -109.5625 56.875 C-108.36753906 57.03742187 -107.17257812 57.19984375 -105.94140625 57.3671875 C-103.17422811 57.8114718 -100.42197274 58.35448438 -97.6875 58.96875 C-92.6230333 60.08293267 -87.5683556 60.87745812 -82.4375 61.625 C-80.66246094 61.88539063 -78.88742187 62.14578125 -77.05859375 62.4140625 C-75.71925781 62.60742188 -74.37992188 62.80078125 -73 63 C-73.66 63.99 -74.32 64.98 -75 66 C-74.67 66.66 -74.34 67.32 -74 68 C-75.258125 67.979375 -76.51625 67.95875 -77.8125 67.9375 C-81.86481195 67.78714028 -81.86481195 67.78714028 -85 69 C-104.96060504 66.7266193 -124.53892049 64.14066251 -144 59 C-146.33245306 58.4131568 -148.66570514 57.82947367 -151 57.25 C-153.475 56.63125 -153.475 56.63125 -156 56 C-156 55.67 -156 55.34 -156 55 C-154.02 55 -152.04 55 -150 55 C-150.33 54.34 -150.66 53.68 -151 53 C-153.64 53 -156.28 53 -159 53 C-163.29 51.02 -167.58 49.04 -172 47 C-173.65 47 -175.3 47 -177 47 C-177.33 45.68 -177.66 44.36 -178 43 C-173.22853243 39.21573261 -169.85649304 36.95216435 -164 35 C-170.435 35.495 -170.435 35.495 -177 36 C-176.67 34.68 -176.34 33.36 -176 32 C-174.22496094 31.62488281 -172.44992187 31.24976563 -170.62109375 30.86328125 C-153.50759543 27.20626556 -153.50759543 27.20626556 -136.8203125 21.98046875 C-134 21 -134 21 -129 20 C-129 19.34 -129 18.68 -129 18 C-124.72692407 17.05042757 -120.45371532 16.10153261 -116.1796875 15.15625 C-112.78606989 14.39870037 -109.3952833 13.62832853 -106.0078125 12.84375 C-104.43773437 12.4828125 -102.86765625 12.121875 -101.25 11.75 C-99.81140625 11.41484375 -98.3728125 11.0796875 -96.890625 10.734375 C-93.46568558 10.08790049 -90.46899236 9.84727707 -87 10 C-90.2071186 12.13807906 -92.54771001 12.76638365 -96.27734375 13.65625 C-97.51291016 13.95660156 -98.74847656 14.25695312 -100.02148438 14.56640625 C-101.95991211 15.02853516 -101.95991211 15.02853516 -103.9375 15.5 C-106.4893349 16.11019364 -109.04016717 16.72459977 -111.58984375 17.34375 C-112.72284912 17.61380859 -113.85585449 17.88386719 -115.02319336 18.16210938 C-118.25647609 18.97145017 -118.25647609 18.97145017 -122 21 C-121.15743652 20.78384033 -120.31487305 20.56768066 -119.44677734 20.3449707 C-100.450224 15.5091341 -81.53455304 11.46945471 -62.15917969 8.49926758 C-54.90951761 7.35355205 -47.70678433 5.94902264 -40.5 4.5625 C-13.43980208 -0.47434596 -13.43980208 -0.47434596 0 0 Z " transform="translate(801,648)" style="fill: #4B515E;"/><path d="M0 0 C-9.26834278 2.97502361 -18.60511126 5.50894088 -28.03930664 7.89306641 C-32.51507945 9.03547999 -36.70192199 10.2807688 -41 12 C-43.30765394 12.46821964 -45.61620705 12.93256835 -47.9296875 13.37109375 C-56.2197993 15.06919553 -64.42301376 17.25428749 -72.5625 19.5625 C-77.98128848 21.06682038 -83.4655442 22.10444682 -88.984375 23.171875 C-100.23323921 24.62939103 -100.23323921 24.62939103 -110 29 C-111.05316406 29.17015625 -112.10632813 29.3403125 -113.19140625 29.515625 C-121.77368184 30.95750866 -130.07860695 32.7580541 -138.45703125 35.09765625 C-141.78908326 35.94628251 -145.03436039 36.5269929 -148.4375 37 C-156.11637086 38.07838864 -163.50177622 40.054617 -171 42 C-175.08149681 43.02820583 -179.16582056 44.04501004 -183.25 45.0625 C-185.21358907 45.55319577 -187.17713168 46.04407748 -189.140625 46.53515625 C-190.09001953 46.77250488 -191.03941406 47.00985352 -192.01757812 47.25439453 C-193.49387695 47.62346924 -193.49387695 47.62346924 -195 48 C-207 51 -207 51 -211 50 C-205 47 -205 47 -193 46 C-193 45.34 -193 44.68 -193 44 C-193.66 44 -194.32 44 -195 44 C-195 43.34 -195 42.68 -195 42 C-197.04194335 42.62409545 -199.08354215 43.24931829 -201.125 43.875 C-202.83042969 44.39707031 -202.83042969 44.39707031 -204.5703125 44.9296875 C-207.72751664 45.91496533 -210.86627606 46.94272536 -214 48 C-215.485 47.773125 -216.97 47.54625 -218.5 47.3125 C-226.25906636 46.59258663 -233.44591235 48.3845174 -241 50 C-243.08176486 50.3836116 -245.16492077 50.75983238 -247.25 51.125 C-251.47521785 51.9033296 -255.56148951 52.88518495 -259.71484375 53.97265625 C-261.80505859 54.51212891 -261.80505859 54.51212891 -263.9375 55.0625 C-266.02384766 55.60583984 -266.02384766 55.60583984 -268.15234375 56.16015625 C-272 57 -272 57 -277 57 C-275 55 -275 55 -269.9453125 53.64453125 C-267.67183597 53.03399949 -265.39840144 52.42331129 -263.125 51.8125 C-261.93495361 51.49297363 -260.74490723 51.17344727 -259.51879883 50.84423828 C-252.89617896 49.06217099 -246.28619369 47.24413224 -239.6875 45.375 C-231.50601064 43.08778253 -223.26158706 41.11225264 -214.9921875 39.17578125 C-210.81822999 38.19271301 -206.65732771 37.17550754 -202.5 36.125 C-191.24950454 33.29238795 -179.96464431 30.6009678 -168.68457031 27.88916016 C-165.21251986 27.05128527 -161.74264706 26.20501858 -158.2734375 25.35546875 C-146.94841359 22.59209051 -135.63550876 20.0323594 -124.1796875 17.859375 C-120.37751688 17.07762029 -116.72556898 16.07924941 -113 15 C-110.73437136 14.51659506 -108.46307629 14.0591728 -106.1875 13.625 C-95.39422401 11.50909045 -84.61091339 9.28089329 -74 6.375 C-66.14806106 4.34547341 -58.05447278 3.76070021 -50 3 C-50 3.33 -50 3.66 -50 4 C-47.36 4 -44.72 4 -42 4 C-42 4.33 -42 4.66 -42 5 C-33.70179866 4.45585565 -25.79310196 2.74997842 -17.68359375 0.9375 C-5.78045391 -1.44511348 -5.78045391 -1.44511348 0 0 Z " transform="translate(669,904)" style="fill: #0046C3;"/><path d="M0 0 C4.05781266 0.35594848 7.4165669 0.72938016 11.1328125 2.453125 C15.86486486 4.34594594 20.25457837 4.84698123 25.3125 5.4375 C32.86437258 6.40572194 39.05932133 7.89495954 46 11 C50.33125669 12.35148235 54.68405801 13.60617656 59.046875 14.8515625 C62.39689973 15.82479103 65.70058701 16.86906913 69 18 C70.65 17.67 72.3 17.34 74 17 C116.6300716 34.2601432 116.6300716 34.2601432 124 49 C124 64.53557031 114.64836392 71.97313116 102 79 C101.34 78.67 100.68 78.34 100 78 C101.30324219 77.14728516 101.30324219 77.14728516 102.6328125 76.27734375 C113.89118463 68.73398256 121 63.45886449 121 49 C115.17072869 40.25609304 108.34729239 35.67364619 99 31 C102.96 33.97 106.92 36.94 111 40 C116 48 116 48 116 59 C114.35 61.64 112.7 64.28 111 67 C110.34 66.34 109.68 65.68 109 65 C107.948125 66.0828125 107.948125 66.0828125 106.875 67.1875 C100.51562401 73.40862868 94.42604914 76.94853291 86.3125 80.4375 C85.21429932 80.91614502 84.11609863 81.39479004 82.98461914 81.88793945 C56.46216382 93.23108191 56.46216382 93.23108191 52 91 C57.05650776 87.62899482 62.22541794 84.85796828 67.6875 82.1875 C86.01204528 73.15399562 86.01204528 73.15399562 99 58 C99 42.73056889 90.78779464 37.93214613 79 31 C67.98007592 25.53404724 56.68340575 20.86158405 45 17 C43.57429687 16.52304687 42.14859375 16.04609375 40.6796875 15.5546875 C28.22592468 11.41729384 15.92148097 7.40301604 3 5 C3.66 4.67 4.32 4.34 5 4 C5 3.34 5 2.68 5 2 C3.35 1.67 1.7 1.34 0 1 C0 0.67 0 0.34 0 0 Z " transform="translate(696,740)" style="fill: #2C3342;"/></svg>